<svg width="39" height="39" viewBox="0 0 39 39" fill="none" xmlns="http://www.w3.org/2000/svg">
<path d="M11.8058 34.488L12.1661 34.661L11.1428 36.8954L10.7825 36.7224L11.8058 34.488ZM11.5175 35.5259L12.2814 35.8863C12.3391 35.9151 12.3823 35.9151 12.44 35.9151C12.4976 35.9151 12.5409 35.8863 12.5841 35.8575C12.6273 35.8142 12.6562 35.771 12.685 35.7133C12.7138 35.6557 12.7282 35.598 12.7282 35.5404C12.7282 35.4827 12.7138 35.4394 12.685 35.3962C12.6562 35.353 12.6129 35.3241 12.5697 35.2953L11.8058 34.9349L11.9643 34.5889L12.7426 34.9493C12.8723 35.007 12.9732 35.0791 13.0309 35.18C13.103 35.2809 13.1462 35.3818 13.1462 35.5115C13.1462 35.6413 13.1318 35.7566 13.0741 35.8863C13.0165 36.0161 12.93 36.117 12.8435 36.189C12.7426 36.2611 12.6417 36.3044 12.512 36.3188C12.3967 36.3332 12.267 36.3044 12.1373 36.2467L11.359 35.8863L11.5175 35.5259ZM11.9211 36.0593L12.3391 36.1602L12.44 37.4864L11.9932 37.2846L11.9211 36.0593Z" fill="white"/>
<path d="M15.6396 35.944L15.9278 36.016L16.2161 38.6252L15.7981 38.5243L15.6396 36.5927L14.573 38.2072L14.155 38.1063L15.6396 35.944ZM14.7748 37.3855L16.0287 37.7026L15.9278 38.0774L14.6739 37.7603L14.7748 37.3855Z" fill="white"/>
<path d="M18.9977 37.9909L18.9256 38.9567L18.5221 38.9279L18.5941 37.9621L17.9744 36.4341L18.4068 36.4629L18.8247 37.5873L19.4013 36.5494L19.8336 36.5782L18.9977 37.9909Z" fill="white"/>
<path d="M21.9091 36.4629L22.1973 36.4341L23.3792 38.7838L22.9468 38.827L22.1253 37.0684L21.6929 38.9567L21.2605 39L21.9091 36.4629ZM21.592 38.1207L22.8747 37.9909L22.918 38.3801L21.6352 38.5099L21.592 38.1207Z" fill="white"/>
<path d="M24.5757 36.0161L24.9937 35.8863L26.5791 37.3567L26.5503 37.4143L25.9449 35.5692L26.3196 35.4539L27.0835 37.7891L26.6656 37.9333L25.0801 36.4918L25.109 36.4341L25.6999 38.2504L25.3252 38.3657L24.5757 36.0161Z" fill="white"/>
<path d="M27.8906 34.7475L28.2654 34.5169L30.139 35.598L30.1246 35.6557L29.1301 33.9979L29.4616 33.7961L30.73 35.9007L30.3552 36.1314L28.496 35.0791L28.5104 35.0214L29.4905 36.6503L29.159 36.8521L27.8906 34.7475Z" fill="white"/>
<path d="M30.8308 32.7438L31.1191 32.4699L32.8054 34.2574L32.5171 34.5313L30.8308 32.7438ZM30.9605 32.6285L32.0127 31.6338L32.2721 31.9221L31.22 32.9168L30.9605 32.6285ZM31.6668 33.3781L32.5748 32.5132L32.8342 32.787L31.9262 33.6519L31.6668 33.3781ZM32.373 34.1276L33.4251 33.133L33.6846 33.4213L32.6324 34.416L32.373 34.1276Z" fill="white"/>
<path d="M36.6105 29.3562C36.5385 29.4427 36.4664 29.5148 36.3799 29.5869C36.2934 29.6589 36.207 29.7022 36.1061 29.7454L35.9187 29.4139C36.034 29.3706 36.1349 29.2985 36.2214 29.2121C36.3078 29.1256 36.3799 29.0247 36.452 28.9093C36.5241 28.7652 36.5529 28.6354 36.5529 28.5345C36.5385 28.4336 36.4952 28.3471 36.3943 28.3039C36.3223 28.2751 36.2646 28.2607 36.207 28.2751C36.1493 28.2895 36.0917 28.3183 36.0484 28.376C36.0052 28.4192 35.9475 28.4913 35.8755 28.5778C35.8755 28.5778 35.8755 28.5778 35.8755 28.5922C35.8755 28.5922 35.8755 28.5922 35.8755 28.6066L35.861 28.6355C35.7602 28.7652 35.6737 28.8805 35.5872 28.9526C35.5007 29.0247 35.3998 29.0823 35.2845 29.0967C35.1692 29.1256 35.0251 29.0967 34.8666 29.0102C34.7224 28.9382 34.6215 28.8517 34.5639 28.7364C34.5062 28.621 34.463 28.4913 34.4774 28.3471C34.4918 28.203 34.5351 28.0444 34.6215 27.8859C34.6648 27.8138 34.708 27.7273 34.7657 27.6696C34.8233 27.5976 34.881 27.5399 34.953 27.4822C35.0251 27.4246 35.1116 27.3669 35.1836 27.3237L35.3854 27.6552C35.2845 27.7129 35.1981 27.7705 35.1116 27.8426C35.0395 27.9147 34.9819 27.9868 34.9386 28.0733C34.8666 28.2174 34.8377 28.3327 34.8521 28.4336C34.8665 28.5345 34.9098 28.6066 35.0107 28.6499C35.0828 28.6787 35.1404 28.6931 35.1981 28.6787C35.2557 28.6643 35.3134 28.621 35.3566 28.5778C35.3998 28.5345 35.4719 28.4625 35.544 28.3616C35.544 28.3616 35.544 28.3616 35.5584 28.3471C35.5728 28.3327 35.5584 28.3471 35.5728 28.3327L35.5872 28.3183L35.6016 28.3039C35.7025 28.1886 35.789 28.0877 35.8755 28.0156C35.9619 27.9435 36.0628 27.9003 36.1781 27.8859C36.2934 27.8714 36.4232 27.9003 36.5673 27.9724C36.697 28.0444 36.7979 28.1309 36.87 28.2462C36.942 28.3616 36.9564 28.4913 36.9564 28.6355C36.942 28.7796 36.8988 28.9382 36.8123 29.1112C36.7402 29.1832 36.6682 29.2697 36.6105 29.3562Z" fill="white"/>
<path d="M35.5582 24.1812L35.7023 24.4695L35.3708 24.7289L35.5294 25.1181L35.2699 25.2911L34.9961 24.628L35.5582 24.1812ZM35.7312 24.9596L35.8032 24.6713L38.412 24.4118L38.2967 24.8298L36.3653 24.974L37.9652 26.0551L37.8499 26.4732L35.7312 24.9596ZM37.158 25.8533L37.4895 24.5992L37.8643 24.7001L37.5328 25.9542L37.158 25.8533Z" fill="white"/>
<path d="M36.3509 20.6639L36.3797 20.2026L38.8299 20.3179L38.8155 20.6927L36.9418 20.6062L37.0571 20.5918L38.484 21.1972L38.4696 21.5144L37.0283 21.9901L36.8842 21.9612L38.7578 22.0477L38.7434 22.4225L36.2932 22.3072L36.322 21.8459L37.9795 21.327L36.3509 20.6639Z" fill="white"/>
<path d="M36.2213 18.2998L36.0051 16.8726L36.3943 16.815L36.6105 18.2421L36.2213 18.2998ZM36.2502 18.4727L36.1925 18.0691L38.6139 17.6943L38.6715 18.0979L36.2502 18.4727ZM37.2591 18.1556L37.0717 16.9159L37.4464 16.8582L37.6338 18.0979L37.2591 18.1556ZM38.268 17.997L38.0518 16.5699L38.4409 16.5123L38.6571 17.9394L38.268 17.997Z" fill="white"/>
<path d="M35.6014 15.287L35.4717 14.8978L37.8066 14.1193L37.9363 14.5086L35.6014 15.287ZM37.5039 14.4509L37.0571 13.0959L37.4174 12.9661L37.8642 14.3212L37.5039 14.4509Z" fill="white"/>
<path d="M34.1458 11.7408L34.0017 11.4814L35.7168 9.50647L35.9186 9.88127L34.607 11.3084L36.524 10.9912L36.7257 11.366L34.1458 11.7408ZM35.7889 11.4093L35.1692 10.2705L35.5151 10.0831L36.1348 11.2219L35.7889 11.4093Z" fill="white"/>
<path d="M28.1934 9.72272C29.0437 9.79479 29.9085 9.86687 30.8021 9.93895C30.8309 10.53 30.8597 11.121 30.8886 11.712C30.5138 11.3516 30.067 10.9624 29.5338 10.5732C29.0725 10.2273 28.6113 9.93895 28.1934 9.72272Z" fill="#FBFBFB"/>
<path d="M23.5667 28.2895C22.8317 28.2895 21.6498 28.203 20.3382 27.6264C18.2772 26.7326 17.0665 25.147 16.6773 24.6136C15.7693 23.3451 15.7837 22.6387 14.6739 21.572C14.0109 20.9377 13.3335 20.5485 12.8723 20.3179C13.6939 20.217 14.991 20.2025 16.3603 20.7791C17.5277 21.2693 18.479 21.8315 19.4302 23.3162C20.5977 25.1037 21.6354 27.0065 23.5667 28.2895Z" fill="white"/>
<path d="M26.6221 9.76596C25.0511 9.91012 23.6963 10.8039 23.1918 12.1301C23.1053 12.3463 22.7306 13.3986 23.163 14.523C23.3071 14.9122 23.5665 15.3158 24.2007 15.9068C25.4691 17.0601 26.2329 17.0745 28.1499 18.2421C29.3461 18.9629 29.9515 19.3521 30.4992 20.1161C31.2342 21.1828 31.3495 22.2639 31.3928 22.6964C31.4072 22.855 31.5081 24.4695 30.8018 25.738C30.528 26.2137 30.1677 26.6606 29.6921 27.0642C29.6776 27.0786 29.6488 27.1075 29.6056 27.1363C29.6056 27.1363 28.8417 27.7417 27.7607 28.0877C26.968 28.3472 25.5988 28.5057 23.9557 28.203C24.5899 28.2174 25.1087 28.1598 25.4835 28.1021C25.8294 28.0444 26.0312 27.9868 26.0888 27.9724C26.3482 27.9003 26.9536 27.6264 27.1698 27.4823C27.4725 27.2804 28.6399 26.3146 28.8417 24.7001C29.0723 22.7829 27.7895 21.4279 27.5301 21.154C27.4869 21.1107 27.458 21.0819 27.4436 21.0675C27.4436 21.0675 27.3283 20.9522 27.1986 20.8513C26.305 20.1305 23.9125 19.0061 23.9125 19.0061C23.653 18.8764 21.4334 17.7952 20.8569 15.6762C20.4533 14.177 20.9578 12.4616 21.9811 11.3949C22.745 10.602 23.6674 10.3137 24.2872 10.1119C25.224 9.79479 26.06 9.75155 26.6221 9.76596Z" fill="white"/>
<path d="M13.146 10.0543C15.2215 9.70829 17.2681 10.7318 18.2049 12.5481C19.1418 14.3644 18.7238 16.4978 17.4555 17.9105C16.288 19.2079 14.4864 19.7845 12.7424 19.4097C14.6594 18.4727 15.87 16.5267 15.798 14.4509C15.7115 11.6255 13.3045 10.1552 13.146 10.0543Z" fill="white"/>
<path d="M10.2347 9.99658H7.30884V28.203H10.2347V9.99658Z" fill="white"/>
<path d="M7.00617 34.2862C-0.805652 26.4732 -1.02185 14.0328 6.50172 6.50811C14.0397 -1.03105 26.4637 -0.800403 34.2755 7.01264" stroke="white" stroke-miterlimit="10"/>
</svg>
